<svg width="142" height="110" viewBox="0 0 142 110" fill="none" xmlns="http://www.w3.org/2000/svg">
<path d="M54 69L3 41.5L54 83L142 21.5L54 69Z" fill="#C89979"/>
<path d="M116 52C116 59.6167 114.5 67.1588 111.585 74.1956C108.67 81.2325 104.398 87.6264 99.0122 93.0122C93.6264 98.398 87.2325 102.67 80.1956 105.585C73.1588 108.5 65.6167 110 58 110C50.3833 110 42.8412 108.5 35.8044 105.585C28.7675 102.67 22.3736 98.398 16.9878 93.0122C11.602 87.6264 7.32976 81.2325 4.41499 74.1956C1.50021 67.1588 -6.6587e-07 59.6167 0 52C-6.00215e-07 58.8657 7.07115 65.6641 9.69852 72.0071C12.3259 78.3502 16.1769 84.1136 21.0316 88.9683C25.8864 93.8231 31.6498 97.6741 37.9929 100.301C44.3359 102.929 51.1343 104.281 58 104.281C64.8657 104.281 71.6641 102.929 78.0071 100.301C84.3502 97.6741 90.1136 93.8231 94.9683 88.9683C99.8231 84.1136 103.674 78.3502 106.301 72.0071C108.929 65.6641 116 58.8657 116 52Z" fill="#C89979"/>
<path d="M113.342 39.8997C109.898 28.461 102.636 18.3896 92.6447 11.1959C82.6537 4.00231 70.4724 0.0742929 57.928 0.00104335C45.3836 -0.0722062 33.1523 3.71326 23.0686 10.7897C12.9849 17.8661 5.59244 27.852 2 39.2495C5.46947 28.2421 14.5111 19.1372 24.2496 12.303C33.9881 5.46884 45.8008 1.81295 57.9158 1.88369C70.0308 1.95444 81.7951 5.748 91.4441 12.6954C101.093 19.6428 110.016 28.8526 113.342 39.8997Z" fill="#C89979"/>
</svg>
